<?xml version="1.0" standalone="no"?>
<!DOCTYPE svg PUBLIC "-//W3C//DTD SVG 20010904//EN"
 "http://www.w3.org/TR/2001/REC-SVG-20010904/DTD/svg10.dtd">
<svg version="1.0" xmlns="http://www.w3.org/2000/svg"
 width="512.000000pt" height="1030.000000pt" viewBox="0 0 512.000000 1030.000000"
 preserveAspectRatio="xMidYMid meet">
<metadata>
Created by potrace 1.15, written by Peter Selinger 2001-2017
</metadata>
<g transform="translate(0.000000,1030.000000) scale(0.100000,-0.100000)"
fill="#000000" stroke="none">
<path d="M2188 9813 c17 -2 47 -2 65 0 17 2 3 4 -33 4 -36 0 -50 -2 -32 -4z
M2368 9803 c7 -3 16 -2 19 1 4 3 -2 6 -13 5 -11 0 -14 -3 -6 -6z M2423 9793
c9 -2 23 -2 30 0 6 3 -1 5 -18 5 -16 0 -22 -2 -12 -5z M2190 9784 c14 -3 52
-9 85 -16 54 -10 194 -20 152 -11 -9 3 -15 8 -12 12 2 5 -37 11 -87 15 -96 6
-183 6 -138 0z M2088 9773 c7 -3 16 -2 19 1 4 3 -2 6 -13 5 -11 0 -14 -3 -6
-6z M1983 9762 c-31 -3 -39 -14 -34 -44 0 -5 -29 -8 -66 -8 -38 -1 -81 -7 -98
-15 l-30 -13 45 -2 c39 -2 42 -3 20 -11 -20 -7 -17 -8 14 -4 22 2 42 8 45 13
3 5 21 12 39 16 93 18 94 18 81 28 -17 12 186 4 219 -9 14 -5 -18 -7 -84 -5
-77 3 -105 1 -100 -7 4 -6 14 -11 23 -11 13 0 13 -3 3 -15 -7 -8 -24 -15 -39
-15 -25 -1 -25 -1 -6 -15 11 -8 25 -19 31 -24 21 -17 84 -40 84 -30 0 5 12 7
28 4 20 -5 17 -2 -13 13 -29 15 -34 20 -17 19 12 -1 22 -4 22 -7 0 -3 11 -5
24 -5 13 0 22 3 19 8 -7 12 32 8 44 -4 9 -9 6 -16 -10 -30 -19 -16 -16 -15 20
2 24 12 40 25 37 30 -3 5 -7 9 -10 9 -3 0 -2 -5 2 -12 5 -8 2 -9 -10 -5 -10 4
-20 7 -22 7 -2 0 -4 5 -4 11 0 5 4 8 9 5 5 -3 11 1 14 9 4 10 1 12 -11 9 -14
-5 -15 -4 -2 5 8 6 23 11 32 11 9 0 18 6 21 13 2 6 15 12 28 13 13 0 42 2 64
3 l40 2 -59 19 c-73 23 -318 50 -393 42z m264 -88 c-3 -3 -12 -4 -19 -1 -8 3
-5 6 6 6 11 1 17 -2 13 -5z M2522 9739 c43 -18 75 -36 71 -42 -3 -5 0 -7 8 -5
8 3 20 -2 27 -11 12 -15 13 -15 9 0 -3 9 1 28 8 43 8 14 11 26 7 27 -4 0 -16
2 -27 4 -11 2 -56 7 -100 10 l-80 5 77 -31z M1530 9680 c-13 -8 -12 -10 3 -10
9 0 17 5 17 10 0 12 -1 12 -20 0z M2500 9673 c-14 -3 -29 -8 -33 -12 -4 -4
-28 -5 -52 -1 -25 4 -45 6 -45 4 0 -1 8 -10 17 -20 17 -16 15 -17 -22 -11 -33
6 -27 2 30 -21 71 -29 157 -78 120 -68 -11 2 -46 10 -77 17 -33 7 -55 16 -51
22 3 6 1 7 -5 3 -6 -4 -32 -7 -56 -8 -25 0 -44 -4 -41 -7 2 -4 26 -18 54 -31
28 -13 51 -27 51 -32 0 -5 -8 -4 -19 1 -10 6 -21 7 -25 4 -3 -3 -6 -1 -6 5 0
7 -15 11 -38 10 -22 0 -43 2 -49 5 -6 4 -10 -2 -9 -13 1 -28 93 -110 122 -110
4 0 -1 9 -11 20 -13 15 -14 19 -4 16 17 -6 145 -44 174 -52 11 -3 5 4 -14 16
-18 11 -31 23 -28 26 2 3 49 -11 103 -31 55 -20 117 -38 139 -40 22 -2 54 -7
70 -10 44 -11 20 10 -30 25 -38 12 -122 61 -175 103 -17 14 -19 18 -6 13 14
-5 17 -3 12 10 -4 12 -2 15 9 11 8 -4 17 -2 20 2 3 5 14 7 25 4 11 -3 20 0 20
6 0 6 -6 11 -14 11 -28 0 -24 16 9 38 32 23 34 23 95 7 34 -9 67 -14 73 -12
12 4 -84 45 -123 52 -14 2 -34 9 -45 14 -23 12 -126 42 -134 40 -3 -1 -17 -4
-31 -6z m130 -43 c0 -5 -4 -10 -10 -10 -5 0 -10 5 -10 10 0 6 5 10 10 10 6 0
10 -4 10 -10z m-70 -20 c0 -5 -12 -10 -27 -9 l-28 1 25 8 c14 4 26 8 28 9 1 1
2 -3 2 -9z M2778 9675 c-3 -3 -24 -6 -47 -7 -23 -1 -44 -5 -47 -10 -3 -4 1 -8
8 -8 7 0 54 -18 103 -40 54 -24 80 -32 65 -20 -14 11 -29 20 -34 20 -5 0 -7 3
-3 6 7 7 111 -51 135 -76 9 -9 33 -25 52 -36 19 -10 40 -26 47 -34 6 -8 14
-12 18 -9 8 9 -116 131 -172 168 -26 17 -53 29 -61 26 -7 -2 -10 0 -7 5 3 6 3
10 -2 11 -4 0 -17 2 -29 4 -12 3 -23 2 -26 0z M1684 9645 c-17 -13 -15 -14 31
-14 36 0 44 3 30 9 -17 6 -14 8 15 12 32 4 31 5 -11 6 -26 1 -53 -4 -65 -13z
M2285 9650 c-3 -6 1 -7 9 -4 18 7 21 14 7 14 -6 0 -13 -4 -16 -10z M1885 9630
c-11 -5 -31 -9 -45 -9 -32 -1 -105 -38 -88 -43 10 -4 10 -8 0 -21 -12 -14 -8
-19 32 -39 61 -31 193 -178 230 -256 16 -34 32 -59 36 -57 4 2 12 -7 18 -20 7
-14 16 -25 22 -25 12 0 8 8 -20 50 -19 27 -73 160 -68 165 2 2 26 -26 53 -61
46 -59 52 -64 80 -58 41 9 63 31 71 70 9 47 19 49 43 11 30 -47 26 -26 -10 44
-17 34 -28 63 -25 66 6 6 63 -72 71 -98 4 -10 11 -19 16 -19 12 0 11 7 -2 32
-52 97 -209 225 -317 258 -71 22 -69 22 -97 10z m222 -116 c29 -14 55 -29 58
-34 6 -10 -62 -3 -83 9 -9 5 -26 5 -39 0 -13 -5 -35 -9 -48 -9 -14 0 -37 0
-51 0 l-26 0 23 -19 c17 -14 21 -23 14 -30 -14 -14 -89 74 -81 94 7 19 47 19
93 0 49 -21 57 -19 31 7 -14 14 -18 23 -10 26 7 2 9 9 5 15 -4 6 9 1 28 -11
18 -13 58 -35 86 -48z M1618 9613 c6 -2 18 -2 25 0 6 3 1 5 -13 5 -14 0 -19
-2 -12 -5z M1672 9597 c18 -19 48 -23 48 -7 0 6 -6 10 -14 10 -8 0 -23 3 -33
7 -17 6 -17 6 -1 -10z M1580 9590 c-14 -4 -39 -8 -57 -9 -54 -2 -30 -26 27
-27 41 0 50 3 50 17 0 10 6 20 13 22 19 8 -5 6 -33 -3z M1354 9558 c-11 -12
-13 -18 -4 -13 19 11 57 18 100 17 25 -1 30 2 20 8 -20 13 -67 13 -75 0 -3 -5
-11 -10 -16 -10 -6 0 -7 5 -4 10 11 18 -1 11 -21 -12z M2153 9573 c9 -2 23 -2
30 0 6 3 -1 5 -18 5 -16 0 -22 -2 -12 -5z M1355 9513 c-11 -3 -32 -14 -46 -24
-18 -13 -29 -15 -36 -8 -8 8 -13 7 -18 0 -3 -6 -3 -10 2 -9 4 2 8 -1 8 -7 0
-5 -4 -8 -10 -7 -5 2 -7 0 -3 -4 4 -4 -10 -27 -32 -50 -22 -24 -40 -50 -40
-59 0 -8 -5 -15 -11 -15 -5 0 -7 -4 -4 -10 3 -5 2 -10 -3 -10 -5 0 -32 -51
-60 -112 -59 -133 -64 -148 -53 -148 4 0 13 17 19 38 15 51 91 201 92 182 0
-13 1 -13 10 0 8 11 9 7 4 -15 -13 -66 -25 -105 -30 -105 -6 0 1 49 12 88 2 9
-2 4 -10 -13 -8 -16 -15 -50 -16 -73 0 -24 -7 -69 -16 -99 -9 -30 -14 -57 -11
-59 3 -3 10 18 17 46 13 55 27 68 58 51 15 -8 25 -6 43 10 12 11 30 18 38 17
17 -4 17 -8 8 -103 -4 -40 -4 -52 2 -35 7 19 10 9 12 -45 1 -38 4 -57 6 -40 3
16 10 33 16 37 9 6 9 8 0 8 -16 0 -18 136 -3 145 8 5 7 11 -1 21 -13 16 -7 77
15 162 7 29 9 52 4 52 -5 0 -6 9 -3 20 4 11 3 34 0 51 -6 27 -10 30 -33 24
-30 -7 -26 -3 31 39 20 15 42 24 49 20 6 -4 8 -3 5 3 -4 6 6 13 23 17 17 3 30
10 30 16 0 10 -29 12 -65 3z m-156 -409 c3 -16 1 -17 -13 -5 -19 16 -21 34 -3
29 6 -3 14 -13 16 -24z M1586 9468 c-3 -17 -3 -34 2 -37 4 -3 18 -51 30 -106
30 -133 42 -178 49 -171 3 3 18 -1 34 -9 34 -18 63 -19 89 -3 15 10 27 10 50
1 35 -13 35 -12 16 51 -14 47 -14 47 4 31 11 -10 22 -27 26 -39 3 -11 16 -32
28 -45 11 -13 15 -21 9 -17 -7 4 -13 2 -13 -3 0 -14 2 -14 35 3 15 8 21 16 14
18 -7 2 -9 10 -5 16 10 16 46 15 46 -1 0 -8 6 -14 14 -14 9 0 3 17 -19 51 -17
28 -49 83 -70 121 -45 81 -108 162 -113 146 -2 -6 -17 -11 -33 -11 l-29 0 20
-40 c11 -21 20 -43 20 -47 -1 -4 -10 9 -21 30 -21 39 -32 49 -23 20 3 -10 -8
-2 -25 17 -17 19 -31 38 -31 42 0 4 -7 5 -15 2 -8 -3 -24 1 -37 10 -33 23 -45
20 -52 -16z m31 0 c-3 -8 -6 -5 -6 6 -1 11 2 17 5 13 3 -3 4 -12 1 -19z m63
-28 c0 -21 -22 -26 -55 -13 -15 5 -14 8 6 19 34 19 49 17 49 -6z m150 -11 c0
-6 -4 -7 -10 -4 -5 3 -10 11 -10 16 0 6 5 7 10 4 6 -3 10 -11 10 -16z M1407
9472 c-13 -14 -14 -21 -5 -30 20 -20 55 -14 71 12 15 22 15 24 0 22 -9 -2 -22
-11 -29 -21 -8 -11 -19 -15 -30 -11 -16 6 -16 8 2 20 10 8 16 17 13 20 -3 3
-13 -2 -22 -12z M1497 9462 c-15 -15 -27 -37 -27 -48 0 -17 -6 -20 -31 -19
-23 1 -33 -4 -44 -24 l-14 -26 1 38 c1 20 -2 40 -5 44 -4 3 -7 -3 -7 -14 0
-11 -3 -23 -7 -27 -5 -4 -8 -13 -8 -19 -1 -7 -5 -11 -10 -10 -6 0 -11 -19 -11
-44 -1 -29 2 -40 7 -32 11 18 11 18 -6 -76 -18 -101 -18 -102 1 -109 13 -5 14
-4 6 7 -16 19 -8 24 33 19 24 -3 35 -9 31 -17 -3 -8 2 -11 14 -8 12 3 20 -2
23 -14 3 -10 3 9 0 42 -2 33 0 85 5 115 l10 55 1 -64 c0 -35 4 -61 7 -58 4 3
16 0 28 -8 24 -18 38 -18 89 -4 30 8 37 14 32 27 -3 9 -11 58 -17 107 -10 83
-49 195 -67 195 -4 0 -19 -13 -34 -28z m30 -48 c-3 -3 -12 -4 -19 -1 -8 3 -5
6 6 6 11 1 17 -2 13 -5z M1730 9480 c0 -6 -6 -8 -12 -4 -10 6 -10 4 0 -7 9 -9
15 -10 23 -2 8 8 8 13 0 17 -6 4 -11 2 -11 -4z M2961 9467 c-7 -10 -11 -21 -9
-22 10 -10 191 -95 195 -92 2 3 -9 19 -24 38 -15 18 -27 35 -25 38 1 3 -1 6
-5 6 -5 0 -21 10 -38 21 -44 31 -80 35 -94 11z M1365 9450 c3 -5 8 -10 11 -10
2 0 4 5 4 10 0 6 -5 10 -11 10 -5 0 -7 -4 -4 -10z M2935 9410 c3 -5 -1 -10
-11 -10 -14 0 -15 -2 -3 -17 13 -15 11 -16 -11 -10 -14 3 -38 8 -55 11 -28 5
-27 4 7 -12 43 -20 47 -29 16 -35 -17 -3 -15 -5 9 -6 17 0 39 -4 48 -7 9 -4
15 -3 14 2 -5 28 2 36 25 30 31 -8 44 11 20 29 -18 13 -17 14 6 9 19 -4 17 -1
-9 10 -38 18 -65 21 -56 6z M2350 9380 c0 -10 33 -30 49 -30 22 0 10 18 -19
29 -17 5 -30 6 -30 1z M2788 9313 c6 -2 18 -2 25 0 6 3 1 5 -13 5 -14 0 -19
-2 -12 -5z M2340 9239 c12 -23 24 -39 26 -36 7 7 -28 77 -38 77 -5 0 1 -18 12
-41z M2540 9271 c0 -6 -7 -8 -15 -5 -8 4 -15 1 -15 -6 0 -7 -7 -10 -17 -5 -14
5 -15 3 -6 -6 18 -18 113 -36 163 -31 l45 5 -30 14 -30 13 40 -5 40 -6 -33 15
c-42 19 -142 31 -142 17z M1321 9244 c0 -11 3 -14 6 -6 3 7 2 16 -1 19 -3 4
-6 -2 -5 -13z M2267 9189 c4 -13 9 -17 15 -11 11 11 3 32 -12 32 -4 0 -6 -9
-3 -21z M2190 9194 c1 -13 29 -60 31 -51 1 4 2 10 3 15 1 4 5 13 9 20 5 6 4
12 -2 12 -5 0 -16 3 -25 6 -9 3 -16 2 -16 -2z M2450 9181 c0 -12 37 -21 85
-20 l40 0 -45 15 c-52 16 -80 18 -80 5z M2110 9170 c0 -5 7 -7 15 -4 8 4 15 8
15 10 0 2 -7 4 -15 4 -8 0 -15 -4 -15 -10z M1301 9144 c0 -11 3 -14 6 -6 3 7
2 16 -1 19 -3 4 -6 -2 -5 -13z M2078 9125 c29 -56 51 -84 52 -65 0 9 -7 25
-15 37 -8 12 -13 27 -12 35 2 7 2 9 -1 5 -2 -5 -13 0 -24 10 -21 18 -21 18 0
-22z M1016 9137 c3 -10 9 -15 12 -12 3 3 0 11 -7 18 -10 9 -11 8 -5 -6z M893
9100 c-13 -5 -23 -14 -23 -19 0 -14 41 -24 71 -18 19 3 17 5 -8 6 -24 1 -31 5
-27 15 3 8 13 17 22 19 13 4 13 5 2 5 -8 0 -25 -3 -37 -8z M1472 9085 c0 -16
2 -22 5 -12 2 9 2 23 0 30 -3 6 -5 -1 -5 -18z M1671 9098 c-1 -21 15 -32 25
-17 4 7 3 9 -4 5 -6 -3 -13 2 -15 11 -4 16 -5 16 -6 1z M1813 9103 c9 -2 25
-2 35 0 9 3 1 5 -18 5 -19 0 -27 -2 -17 -5z M960 9085 c7 -8 16 -15 20 -15 4
0 10 7 14 15 4 11 -2 15 -21 15 -21 0 -24 -2 -13 -15z M1830 9081 c0 -6 4 -13
10 -16 6 -3 7 1 4 9 -7 18 -14 21 -14 7z M1590 9064 c0 -8 5 -12 10 -9 6 4 8
11 5 16 -9 14 -15 11 -15 -7z M1955 9070 c-3 -5 -1 -10 4 -10 6 0 11 5 11 10
0 6 -2 10 -4 10 -3 0 -8 -4 -11 -10z M915 9028 c3 -15 10 -40 17 -55 8 -21 12
-24 15 -11 2 9 -5 34 -17 55 -18 32 -20 34 -15 11z M1840 9040 c0 -5 5 -10 11
-10 5 0 7 5 4 10 -3 6 -8 10 -11 10 -2 0 -4 -4 -4 -10z M1482 9020 c0 -14 4
-36 8 -50 8 -25 8 -25 9 -2 1 15 5 21 13 16 7 -4 8 -3 4 5 -4 6 -11 9 -16 6
-5 -3 -11 7 -13 22 -4 26 -4 26 -5 3z M1455 8955 c3 -38 13 -97 20 -130 12
-51 35 -171 35 -182 0 -2 5 -1 11 3 8 4 9 -1 5 -17 -6 -19 -5 -21 4 -7 7 12 5
39 -10 100 -10 45 -27 126 -36 178 -20 120 -37 152 -29 55z M3712 8975 c0 -16
2 -22 5 -12 2 9 2 23 0 30 -3 6 -5 -1 -5 -18z M771 8928 c8 -59 32 -123 51
-134 8 -5 9 -2 3 12 -4 10 -16 48 -26 83 l-18 63 37 -6 c20 -4 50 -12 65 -18
22 -8 31 -8 40 2 10 10 8 12 -6 7 -10 -4 -32 0 -48 8 -16 9 -34 13 -38 10 -5
-3 -11 -1 -13 4 -1 5 -15 12 -29 16 l-26 6 8 -53z M3641 8966 c-7 -8 -8 -17
-3 -20 6 -3 12 3 15 14 6 24 4 25 -12 6z M1022 8950 c0 -14 2 -19 5 -12 2 6 2
18 0 25 -3 6 -5 1 -5 -13z M2678 8963 c6 -2 18 -2 25 0 6 3 1 5 -13 5 -14 0
-19 -2 -12 -5z M2758 8963 c6 -2 18 -2 25 0 6 3 1 5 -13 5 -14 0 -19 -2 -12
-5z M1146 8900 c-10 -34 -16 -64 -12 -67 3 -4 6 -1 6 6 0 7 7 19 15 27 12 12
23 94 13 94 -2 0 -11 -27 -22 -60z M1621 8939 c-1 -4 6 -25 14 -48 l14 -41
-30 0 c-37 0 -44 -18 -30 -74 9 -37 86 -186 96 -186 2 0 1 10 -1 23 -3 14 2
10 15 -14 11 -20 32 -44 46 -53 14 -9 23 -21 20 -27 -4 -5 -2 -8 4 -7 6 2 22
-10 36 -27 l26 -30 -17 35 c-9 19 -28 48 -43 63 -16 18 -20 27 -11 25 8 -2 18
-7 21 -12 4 -4 9 -4 12 1 9 15 -63 115 -79 109 -40 -17 -47 -17 -24 -1 14 10
26 19 28 21 2 1 -8 25 -22 53 -14 28 -26 54 -26 58 1 4 15 -18 31 -50 22 -42
34 -57 45 -53 9 3 20 6 25 6 16 0 10 25 -21 87 -33 66 -69 109 -51 59 6 -14
18 -40 27 -57 22 -44 11 -47 -15 -3 -15 24 -26 34 -37 30 -8 -3 -12 -2 -9 4 3
6 2 10 -2 10 -5 0 -9 8 -10 18 -2 19 -31 92 -32 81z M2090 8925 c0 -8 4 -15
10 -15 5 0 7 7 4 15 -4 8 -8 15 -10 15 -2 0 -4 -7 -4 -15z M1012 8890 c0 -19
2 -27 5 -17 2 9 2 25 0 35 -3 9 -5 1 -5 -18z M1500 8904 c0 -38 41 -178 74
-249 65 -140 162 -261 228 -284 l32 -11 -21 22 c-20 22 -71 97 -160 235 -23
36 -48 72 -56 81 -27 31 -57 101 -64 147 -6 51 -32 97 -33 59z M2698 8913 c6
-2 18 -2 25 0 6 3 1 5 -13 5 -14 0 -19 -2 -12 -5z M2086 8858 c20 -66 64 -134
75 -116 12 18 11 30 0 23 -6 -3 -8 8 -5 27 6 38 -23 103 -46 103 -8 0 -20 4
-27 8 -9 5 -8 -8 3 -45z M1251 8874 c0 -11 3 -14 6 -6 3 7 2 16 -1 19 -3 4 -6
-2 -5 -13z M1086 8863 c-6 -14 -5 -15 5 -6 7 7 10 15 7 18 -3 3 -9 -2 -12 -12z
M1825 8828 c-8 -18 -14 -28 -15 -22 0 5 -7 19 -15 30 -9 12 -7 -3 8 -43 16
-45 26 -62 37 -58 8 2 45 5 82 7 38 2 68 5 68 8 0 17 -45 73 -72 90 -49 30
-76 26 -93 -12z M997 8805 c-10 -68 -9 -105 3 -105 5 0 7 7 4 15 -4 9 -1 36 5
61 7 27 8 51 3 61 -7 11 -11 2 -15 -32z M1152 8830 c0 -14 2 -19 5 -12 2 6 2
18 0 25 -3 6 -5 1 -5 -13z M2204 8830 c3 -14 8 -44 12 -67 4 -28 12 -43 21
-43 16 0 13 15 -19 90 -10 25 -16 34 -14 20z M946 8827 c3 -10 9 -15 12 -12 3
3 0 11 -7 18 -10 9 -11 8 -5 -6z M1320 8798 c0 -18 -3 -44 -6 -58 -5 -21 -4
-22 6 -10 10 13 11 12 6 -3 -3 -10 -6 -24 -6 -30 0 -7 -4 -6 -10 3 -18 28 -11
-20 20 -140 31 -117 55 -175 90 -220 l19 -25 -14 45 c-7 25 -20 64 -29 87 -18
50 -40 196 -33 215 3 7 6 -1 6 -18 1 -41 52 -165 85 -209 44 -57 176 -151 176
-125 0 5 6 10 14 12 10 2 6 13 -16 38 l-30 35 16 -32 c18 -37 19 -43 7 -43
-18 0 -113 246 -131 341 -11 57 -49 141 -60 134 -5 -3 -11 4 -15 15 -5 16 -15
20 -51 20 -43 0 -44 -1 -44 -32z m166 -343 c12 -16 14 -17 10 -2 -8 25 1 21
19 -10 16 -28 16 -28 11 -3 l-5 25 19 -25 c23 -30 26 -48 5 -30 -12 10 -16 9
-21 -5 -6 -16 -9 -15 -26 6 -10 13 -28 42 -39 64 -19 38 -15 35 27 -20z M1500
8431 c0 -6 4 -13 10 -16 6 -3 7 1 4 9 -7 18 -14 21 -14 7z M2045 8795 c4 -16
13 -37 21 -45 20 -20 17 -1 -7 40 l-20 35 6 -30z M3654 8780 c0 -13 4 -16 10
-10 7 7 7 13 0 20 -6 6 -10 3 -10 -10z M3815 8760 c-29 -7 -28 -8 11 -9 25 -1
52 -9 67 -21 29 -23 116 -183 118 -215 0 -11 5 -29 10 -40 6 -14 7 -7 3 25 -3
25 -19 69 -36 99 -16 29 -27 55 -24 58 11 11 -26 63 -61 88 -40 27 -41 27 -88
15z M1194 8723 c-3 -16 -12 -46 -19 -68 -18 -52 -29 -156 -21 -191 l7 -27 21
21 c18 17 21 33 21 99 0 43 1 58 4 33 5 -69 11 -87 30 -94 10 -4 14 -4 10 0
-4 4 -3 12 2 18 4 6 5 38 0 71 -5 33 -11 84 -15 113 -7 57 -30 71 -40 25z
M940 8725 c0 -13 -7 -15 -34 -10 -31 6 -34 5 -32 -17 0 -14 7 -25 14 -25 7 0
11 6 8 14 -4 9 4 13 24 13 23 0 30 4 30 20 0 11 -2 20 -5 20 -3 0 -5 -7 -5
-15z M2173 8719 c1 -14 13 -38 25 -55 l23 -29 -19 40 c-11 22 -22 47 -25 55
-3 8 -5 4 -4 -11z M1883 8713 c-24 -2 -43 -8 -43 -12 0 -14 126 -156 166 -188
29 -22 53 -31 95 -36 l57 -5 -36 51 c-19 29 -49 82 -67 119 -18 37 -35 64 -39
61 -3 -4 -6 -1 -6 5 0 12 -34 13 -127 5z m125 -137 c18 -2 40 -10 49 -18 15
-12 15 -11 4 12 -9 20 -5 18 19 -10 56 -63 62 -96 9 -49 -13 11 -18 17 -10 13
9 -4 12 -3 8 3 -4 6 -22 8 -46 3 -43 -8 -53 -2 -99 67 -30 43 -27 49 6 14 16
-18 41 -32 60 -35z M2096 8695 c9 -14 18 -25 20 -25 2 0 -2 11 -8 25 -6 14
-15 25 -20 25 -5 0 -1 -11 8 -25z M1112 8680 c-2 -38 -22 -80 -22 -47 0 38
-19 13 -30 -40 -21 -107 -22 -133 -6 -216 8 -45 18 -100 21 -122 5 -35 4 -37
-6 -15 -6 14 -15 50 -20 80 -5 30 -16 87 -24 125 -8 39 -15 102 -16 140 -1 66
-2 68 -10 30 -13 -53 -19 -466 -8 -459 5 3 9 -4 9 -16 0 -14 -4 -19 -12 -15
-7 4 -5 0 4 -7 9 -8 18 -27 20 -44 2 -16 7 -32 11 -35 5 -4 10 -18 10 -33 1
-14 5 -26 9 -26 4 0 12 -17 18 -37 5 -21 19 -49 29 -63 19 -24 19 -23 0 33
-18 52 -48 211 -62 327 -7 51 -4 45 39 -95 26 -84 47 -100 25 -19 -17 61 -6
49 23 -26 15 -38 31 -70 35 -70 5 0 -3 37 -16 82 -13 45 -26 100 -28 122 -4
26 4 9 20 -44 24 -80 98 -250 109 -250 6 0 -18 70 -34 100 -7 12 -13 34 -15
49 -2 16 -11 65 -19 111 -9 45 -16 104 -16 131 0 55 -9 61 -39 23 -29 -37 -26
-22 5 27 25 40 25 42 14 137 -5 53 -12 120 -13 147 -2 34 -4 39 -5 15z M2234
8688 c3 -13 18 -76 33 -141 l27 -117 35 6 c48 9 50 10 43 37 -6 22 -6 22 -13
-3 -6 -21 -7 -22 -9 -5 l-1 20 -10 -20 c-7 -15 -8 -10 -5 20 4 35 3 38 -8 22
-12 -16 -14 -14 -20 15 -20 102 -49 188 -63 188 -11 0 -14 -6 -9 -22z M1763
8693 c-13 -2 -23 -7 -23 -10 0 -3 16 -28 35 -54 19 -27 35 -55 35 -62 0 -9 2
-9 8 1 9 13 28 -3 47 -38 7 -12 4 -11 -11 2 -16 14 -21 14 -32 2 -11 -12 -10
-19 8 -44 24 -33 29 -35 63 -19 l24 11 -47 78 c-25 42 -52 91 -59 109 -8 17
-16 30 -20 30 -3 -1 -16 -4 -28 -6z M982 8665 c0 -16 2 -22 5 -12 2 9 2 23 0
30 -3 6 -5 -1 -5 -18z M2290 8661 c0 -6 4 -13 10 -16 6 -3 7 1 4 9 -7 18 -14
21 -14 7z M1022 8635 c0 -16 2 -22 5 -12 2 9 2 23 0 30 -3 6 -5 -1 -5 -18z
M2300 8606 c0 -9 5 -16 10 -16 6 0 10 4 10 9 0 6 -4 13 -10 16 -5 3 -10 -1
-10 -9z M1530 8597 c0 -16 45 -128 65 -164 29 -49 40 -56 23 -15 -6 15 -23 61
-38 102 -15 41 -32 76 -39 78 -6 2 -11 2 -11 -1z M683 8560 c3 -14 20 -108 38
-210 31 -186 47 -247 35 -135 -9 86 -62 354 -71 363 -4 4 -5 -4 -2 -18z M3506
8571 c-4 -5 4 -7 16 -3 18 4 20 2 14 -14 -5 -14 -4 -16 5 -7 6 6 8 16 5 22 -9
13 -33 14 -40 2z M2310 8551 c0 -25 6 -27 13 -6 4 8 2 17 -3 20 -6 4 -10 -3
-10 -14z M3514 8516 c-4 -9 -21 -23 -39 -30 -36 -16 -115 -83 -115 -98 0 -6
20 8 44 30 24 22 57 47 73 55 34 18 59 45 50 54 -4 3 -9 -2 -13 -11z M2209
8482 c-3 -20 -2 -29 4 -23 5 5 7 19 5 32 -3 20 -5 19 -9 -9z M2547 8481 c-4
-18 -8 -57 -8 -85 -1 -44 -2 -47 -9 -21 l-8 30 -1 -32 c0 -18 4 -33 9 -33 6 0
8 -11 6 -24 -3 -18 -1 -23 9 -20 17 7 42 -101 51 -220 4 -50 11 -83 16 -79 11
6 8 42 -22 258 -11 77 -23 167 -27 200 -8 56 -9 58 -16 26z M3166 8483 c-6
-14 -5 -15 5 -6 7 7 10 15 7 18 -3 3 -9 -2 -12 -12z M2883 8483 c9 -2 23 -2
30 0 6 3 -1 5 -18 5 -16 0 -22 -2 -12 -5z M1237 8473 c-4 -3 -7 -14 -7 -24 0
-31 49 -176 64 -188 12 -10 12 -5 0 29 -8 23 -19 75 -25 116 -11 70 -17 83
-32 67z M1890 8460 c-16 -10 -12 -12 43 -24 26 -6 27 -6 10 14 -19 22 -31 24
-53 10z M2476 8420 c8 -85 15 -120 26 -120 13 0 4 68 -17 130 l-15 45 6 -55z
M3324 8439 l-29 -31 27 13 c15 6 30 18 33 27 10 26 0 23 -31 -9z M2898 8453
c7 -3 16 -2 19 1 4 3 -2 6 -13 5 -11 0 -14 -3 -6 -6z M1186 8431 c-22 -24 -19
-42 20 -173 20 -65 30 -85 41 -81 9 4 13 14 9 27 -3 11 -13 64 -22 115 -9 52
-19 103 -23 114 -7 17 -8 17 -25 -2z M2371 8431 c-10 -6 -10 -10 -1 -16 13 -8
24 -1 19 14 -3 6 -10 7 -18 2z M2441 8420 c1 -8 5 -26 9 -40 l8 -25 1 25 c0
14 -4 32 -9 40 -9 13 -10 13 -9 0z M2335 8354 c-9 -20 -14 -46 -11 -59 8 -31
26 -288 27 -389 1 -56 4 -75 10 -61 8 19 5 -163 -6 -290 -3 -37 0 -30 10 25
31 167 27 449 -11 740 -3 25 -2 42 2 38 4 -4 13 -3 21 3 7 6 13 8 13 3 0 -5 5
-2 10 6 8 12 10 12 10 -5 0 -17 2 -17 10 -5 15 23 13 26 -29 28 -35 2 -40 0
-56 -34z M1766 8351 c-3 -4 6 -13 19 -19 27 -12 33 -4 13 16 -14 14 -25 15
-32 3z M3278 8333 c-23 -28 -30 -43 -19 -43 6 0 11 5 11 12 0 6 7 20 17 30 9
10 14 18 11 18 -3 0 -12 -8 -20 -17z M1536 8329 c3 -10 -1 -19 -10 -22 -23 -9
-20 -40 5 -55 12 -7 18 -16 15 -19 -3 -3 6 -15 20 -25 14 -11 23 -23 20 -26
-3 -2 -12 1 -21 8 -9 7 -18 10 -22 7 -3 -4 6 -12 21 -18 36 -17 40 -8 15 35
-16 28 -20 45 -14 74 4 20 3 34 -1 30 -4 -4 -13 0 -21 10 -11 14 -12 14 -7 1z
M1865 8310 c-4 -6 -11 -7 -17 -4 -7 5 -8 2 -4 -5 5 -7 10 -10 14 -7 3 3 10 -2
17 -11 9 -12 16 -13 29 -6 17 9 17 11 1 26 -19 19 -31 21 -40 7z M1596 8290
c12 -12 28 -20 35 -18 9 3 0 12 -21 22 l-35 18 21 -22z M1570 8286 c0 -2 8
-10 18 -17 15 -13 16 -12 3 4 -13 16 -21 21 -21 13z M1796 8282 c-3 -5 1 -15
9 -22 16 -14 20 -3 6 19 -5 8 -11 9 -15 3z M1831 8270 c14 -31 19 -36 19 -24
0 6 -7 19 -16 30 -14 18 -14 18 -3 -6z M1406 8271 c-3 -5 8 -11 24 -13 24 -4
27 -2 19 9 -13 15 -35 17 -43 4z M1708 8263 c7 -3 16 -2 19 1 4 3 -2 6 -13 5
-11 0 -14 -3 -6 -6z M1770 8266 c0 -2 8 -10 18 -17 15 -13 16 -12 3 4 -13 16
-21 21 -21 13z M3240 8251 c-5 -11 -10 -30 -9 -43 1 -18 3 -17 8 8 4 17 11 36
15 42 4 7 5 12 2 12 -3 0 -10 -9 -16 -19z M3755 8253 c-11 -3 -23 -10 -27 -17
-12 -18 -9 -46 6 -46 9 0 12 -8 9 -24 -3 -15 1 -25 10 -29 12 -4 20 7 32 44
16 47 15 80 -2 78 -4 -1 -17 -4 -28 -6z M1410 8240 c0 -12 67 -33 80 -25 13 8
2 27 -13 22 -7 -2 -24 0 -39 4 -16 4 -28 4 -28 -1z M1757 8229 c4 -13 8 -18
11 -10 2 7 -1 18 -6 23 -8 8 -9 4 -5 -13z M3513 8243 c-9 -3 -13 -28 -13 -79
0 -59 3 -72 14 -68 27 10 26 156 -1 147z M1688 8223 c7 -3 16 -2 19 1 4 3 -2
6 -13 5 -11 0 -14 -3 -6 -6z M1845 8220 c3 -5 8 -10 11 -10 2 0 4 5 4 10 0 6
-5 10 -11 10 -5 0 -7 -4 -4 -10z M1480 8196 c0 -2 7 -7 16 -10 8 -3 12 -2 9 4
-6 10 -25 14 -25 6z M3435 8141 c-20 -41 -86 -249 -85 -270 1 -17 24 39 49
121 15 51 38 117 49 146 27 66 20 67 -13 3z M4410 8149 c25 -11 54 -28 66 -37
11 -9 3 0 -18 21 -26 26 -46 37 -65 36 -25 0 -24 -2 17 -20z M2396 8080 c2
-41 7 -113 11 -160 7 -84 6 -355 -2 -460 -3 -47 -3 -50 5 -20 7 28 8 21 5 -33
-4 -61 -3 -66 11 -53 8 9 21 19 27 23 7 5 20 26 29 48 37 92 38 94 33 35 -12
-122 -28 -226 -37 -240 -7 -11 -8 -9 -4 9 5 23 3 22 -28 -10 -44 -45 -92 -180
-78 -218 6 -14 13 -35 17 -46 5 -17 8 -17 26 10 29 45 88 242 95 323 4 44 12
73 20 76 10 4 10 11 1 35 -9 24 -8 34 1 43 9 9 12 8 12 -4 0 -9 4 -20 10 -23
5 -3 7 0 4 8 -3 8 2 17 10 20 17 7 22 37 6 37 -5 0 -7 -7 -4 -15 4 -8 1 -15
-5 -15 -6 0 -11 7 -11 16 0 8 -4 13 -9 10 -25 -16 -29 199 -5 246 8 15 19 50
25 79 8 36 14 47 20 38 11 -18 11 91 0 146 l-9 40 -1 -35 c-1 -19 -8 -62 -16
-95 l-13 -60 -3 60 c-2 45 -3 50 -6 20 -9 -120 -15 -166 -20 -161 -9 8 -13 60
-12 144 0 55 -3 72 -12 66 -9 -5 -11 2 -6 30 5 32 4 34 -9 21 -8 -8 -18 -37
-21 -64 -3 -28 -9 -48 -13 -46 -4 3 -10 35 -14 72 -4 38 -13 93 -20 123 l-13
55 3 -75z m71 -922 c-3 -8 -6 -5 -6 6 -1 11 2 17 5 13 3 -3 4 -12 1 -19z
M4403 8121 c20 -15 33 -32 29 -36 -4 -5 -1 -5 6 -1 8 5 19 -7 31 -36 11 -24
20 -37 20 -30 1 6 5 12 11 12 5 0 6 -7 3 -17 -4 -10 -2 -14 4 -10 8 5 19 -22
32 -75 15 -59 19 -69 15 -35 -14 121 -58 198 -135 238 -53 27 -58 24 -16 -10z
M2322 8110 c0 -14 2 -19 5 -12 2 6 2 18 0 25 -3 6 -5 1 -5 -13z M4380 8104 c0
-8 5 -12 10 -9 6 4 8 11 5 16 -9 14 -15 11 -15 -7z M2165 8088 c-9 -6 -27 -7
-39 -4 -18 4 -34 -4 -70 -37 -40 -37 -46 -49 -46 -83 0 -50 28 -96 73 -117 41
-20 77 -21 132 -5 22 6 44 12 50 12 5 1 19 19 30 41 11 22 23 42 28 43 4 2 7
28 7 58 0 43 -3 52 -15 48 -8 -4 -17 1 -21 9 -10 27 -100 51 -129 35z m31 -75
c-3 -10 -10 -38 -16 -62 -6 -23 -14 -41 -17 -38 -6 6 25 117 33 117 3 0 3 -8
0 -17z m-87 -54 c-7 -19 -16 -38 -20 -44 -5 -5 -2 12 7 38 9 27 18 46 20 44 2
-2 -1 -19 -7 -38z m34 -6 c-9 -27 -18 -50 -21 -53 -6 -6 5 41 18 75 17 44 19
27 3 -22z m97 32 c0 -8 -4 -15 -9 -15 -5 0 -12 -8 -14 -17 -3 -12 -5 -9 -6 8
0 14 2 29 6 32 11 12 23 8 23 -8z M3188 8048 c-14 -18 -31 -44 -38 -58 -16
-30 -33 -271 -21 -302 5 -15 10 23 13 112 5 131 6 137 42 208 20 39 34 72 32
72 -2 0 -15 -15 -28 -32z M942 7998 c-12 -12 -16 -77 -6 -114 4 -16 11 -20 25
-17 17 5 19 11 13 52 -12 79 -18 93 -32 79z M1331 7970 c0 -8 4 -22 9 -30 12
-18 12 -2 0 25 -6 13 -9 15 -9 5z M4508 7895 c2 -25 8 -43 13 -40 4 3 6 20 2
38 -9 50 -18 51 -15 2z M1623 7905 c4 -8 1 -17 -5 -21 -7 -4 -8 -3 -4 4 4 7 5
12 2 12 -3 0 -10 -10 -17 -21 -8 -15 -8 -19 0 -15 6 4 11 2 11 -3 0 -6 -8 -11
-17 -11 -14 0 -15 -2 -5 -9 19 -12 58 -2 77 19 13 15 14 23 5 39 -12 24 -56
30 -47 6z M1447 7899 c7 -7 15 -10 18 -7 3 3 -2 9 -12 12 -14 6 -15 5 -6 -5z
M2613 7860 c0 -30 2 -43 4 -27 2 15 2 39 0 55 -2 15 -4 2 -4 -28z M2332 7870
c0 -14 2 -19 5 -12 2 6 2 18 0 25 -3 6 -5 1 -5 -13z M1430 7873 c-8 -3 -23
-12 -32 -20 -9 -8 -22 -12 -27 -8 -6 3 -11 1 -11 -4 0 -6 5 -11 11 -11 6 0 8
-7 5 -15 -3 -9 1 -18 10 -22 11 -4 12 -8 4 -13 -9 -6 -6 -24 11 -70 13 -35 25
-58 27 -52 2 7 11 12 20 12 27 0 81 43 98 78 15 32 11 77 -7 67 -5 -4 -9 -2
-9 4 0 5 5 13 10 16 6 3 10 11 10 17 0 6 -3 9 -6 6 -3 -4 -21 0 -39 8 -36 15
-50 16 -75 7z m36 -79 c-8 -21 -15 -34 -15 -28 -1 15 20 76 25 71 2 -2 -2 -21
-10 -43z m49 29 c-4 -10 -8 -27 -11 -37 -2 -11 -8 -24 -13 -29 -6 -6 -6 5 0
29 4 22 9 42 9 47 0 4 5 7 11 7 7 0 8 -7 4 -17z m-70 -23 c-3 -5 -13 -10 -21
-10 -8 0 -12 5 -9 10 3 6 13 10 21 10 8 0 12 -4 9 -10z M4533 7775 c0 -38 2
-53 4 -32 2 20 2 52 0 70 -2 17 -4 1 -4 -38z M3571 7798 c-10 -28 -9 -35 9
-52 23 -23 32 -17 49 33 13 39 14 36 -21 45 -23 5 -27 2 -37 -26z M4204 7730
c-25 -10 -41 -30 -25 -30 6 0 11 5 11 10 0 6 11 10 24 10 14 0 28 5 31 10 7
12 -12 12 -41 0z M1331 7684 c0 -11 3 -14 6 -6 3 7 2 16 -1 19 -3 4 -6 -2 -5
-13z M4421 7684 c0 -11 3 -14 6 -6 3 7 2 16 -1 19 -3 4 -6 -2 -5 -13z M2290
7634 c-24 -55 -20 -69 6 -24 16 26 20 28 26 13 5 -13 7 -9 7 14 1 50 -17 49
-39 -3z M4135 7650 c-10 -11 -21 -18 -24 -15 -9 5 -37 -13 -30 -20 10 -10 72
22 75 39 3 21 1 20 -21 -4z M1342 7630 c0 -14 2 -19 5 -12 2 6 2 18 0 25 -3 6
-5 1 -5 -13z M4543 7605 c0 -27 2 -38 4 -22 2 15 2 37 0 50 -2 12 -4 0 -4 -28z
M2700 7615 c0 -8 2 -15 4 -15 2 0 6 7 10 15 3 8 1 15 -4 15 -6 0 -10 -7 -10
-15z M4412 7590 c0 -14 2 -19 5 -12 2 6 2 18 0 25 -3 6 -5 1 -5 -13z M4501
7574 c0 -11 3 -14 6 -6 3 7 2 16 -1 19 -3 4 -6 -2 -5 -13z M1679 7563 c-13
-17 -13 -17 6 -3 11 8 22 16 24 17 2 2 0 3 -6 3 -6 0 -17 -8 -24 -17z M2691
7490 c-1 -110 7 -160 25 -153 8 3 11 9 8 14 -3 5 -8 31 -10 57 -3 26 -8 74
-13 107 l-8 60 -2 -85z M1512 7520 c18 -22 37 -40 43 -40 5 0 -9 18 -30 40
-50 51 -55 51 -13 0z M2239 7533 c-13 -16 -12 -17 4 -4 9 7 17 15 17 17 0 8
-8 3 -21 -13z M1782 7515 c0 -16 2 -22 5 -12 2 9 2 23 0 30 -3 6 -5 -1 -5 -18z
M4020 7505 c-11 -13 -10 -14 4 -9 9 3 16 10 16 15 0 13 -6 11 -20 -6z M1352
7475 c-3 -36 10 -94 22 -98 8 -3 11 4 8 24 -2 16 -8 29 -13 29 -4 0 -10 15
-12 33 -2 17 -4 23 -5 12z M3970 7471 c0 -16 6 -21 25 -21 16 0 25 6 25 15 0
8 -4 15 -9 15 -5 0 -16 3 -25 6 -12 4 -16 0 -16 -15z M2184 7458 l-19 -23 23
19 c21 18 27 26 19 26 -2 0 -12 -10 -23 -22z M4402 7460 c0 -14 2 -19 5 -12 2
6 2 18 0 25 -3 6 -5 1 -5 -13z M1626 7462 c-3 -5 1 -20 9 -35 7 -15 11 -26 7
-25 -14 3 -62 -15 -63 -23 -1 -5 -3 -13 -4 -19 -1 -5 -3 -15 -4 -21 0 -6 -16
-9 -34 -8 -44 4 -100 -36 -87 -62 7 -11 7 -20 0 -24 -5 -3 -10 -3 -10 2 0 4
-5 1 -10 -7 -6 -10 -10 -11 -10 -2 0 6 -5 12 -11 12 -5 0 -7 -5 -3 -12 4 -7 3
-8 -5 -4 -8 6 -9 12 -2 20 8 9 7 17 -2 28 -13 17 -52 33 -42 18 8 -13 -33 -33
-58 -26 -14 3 -32 -3 -47 -15 -14 -12 -19 -18 -12 -14 6 3 12 1 12 -4 0 -6 -5
-11 -11 -11 -5 0 -8 -4 -4 -9 3 -6 -4 -15 -16 -22 -16 -8 -23 -8 -29 1 -5 9
-9 9 -14 1 -4 -6 -5 -15 -1 -20 3 -6 -4 -8 -15 -6 -31 6 -24 -3 20 -25 48 -24
64 -18 58 20 -3 22 -1 28 13 27 15 -1 16 -4 6 -16 -10 -12 -8 -13 13 -8 l25 6
-28 -20 c-15 -12 -24 -26 -21 -31 4 -7 2 -8 -4 -4 -7 4 -12 2 -12 -5 0 -10 -3
-10 -12 -1 -15 15 -29 15 -26 0 5 -20 41 -58 55 -58 7 0 16 -13 19 -30 4 -17
11 -27 18 -24 6 3 2 -2 -8 -10 -11 -9 -28 -16 -38 -16 -12 0 -18 -8 -19 -22
-1 -18 -2 -19 -6 -5 -6 24 -23 11 -23 -19 0 -13 -5 -24 -12 -24 -6 0 -8 -3 -5
-6 4 -4 13 -1 22 6 12 10 15 10 15 -4 0 -9 -7 -16 -15 -16 -10 0 -14 -9 -13
-25 2 -21 10 -30 21 -23 1 1 12 -4 24 -10 12 -7 23 -8 25 -3 5 13 118 83 118
73 0 -4 -6 -14 -12 -21 -11 -11 -10 -12 0 -6 7 4 18 19 23 33 9 24 11 25 20 9
6 -9 7 -23 3 -30 -8 -12 4 -4 57 38 23 19 24 22 10 35 -13 13 -14 12 -8 -3 7
-18 -8 -24 -18 -7 -3 5 6 17 20 26 13 9 22 21 18 28 -4 8 -3 8 7 -1 8 -7 22
-8 41 -3 17 5 31 5 35 -1 3 -5 10 -6 16 -3 6 4 14 0 19 -7 7 -11 10 -12 21 -1
8 9 9 12 2 10 -12 -3 -15 8 -7 29 3 7 10 10 16 6 6 -4 7 -1 2 7 -5 8 -3 11 6
8 8 -3 26 1 41 8 25 13 26 17 16 42 -7 15 -15 31 -19 35 -3 5 -5 25 -3 45 3
32 3 34 -6 14 -5 -13 -14 -20 -20 -17 -12 8 -13 42 -1 49 4 3 11 18 14 33 3
16 9 37 13 47 5 12 4 17 -3 13 -5 -4 -19 1 -29 9 -10 9 -13 13 -7 9 9 -4 11 2
7 23 -4 19 -1 32 10 41 19 16 21 42 4 59 -14 14 -25 15 -32 4z m-10 -107 c-1
-22 -2 -23 -13 -9 -12 17 -9 34 7 34 4 0 7 -11 6 -25z m-16 -44 c5 -11 10 -30
10 -43 0 -18 2 -20 10 -8 7 11 10 8 10 -16 0 -26 -4 -31 -22 -30 -13 0 -23 -3
-23 -9 -1 -5 -11 -26 -23 -45 -12 -19 -22 -39 -21 -45 0 -5 5 0 11 13 10 19
18 22 58 20 50 -3 62 -21 31 -46 -9 -8 -11 -11 -5 -8 7 3 14 -5 16 -18 4 -17
1 -23 -8 -19 -7 3 -25 -5 -40 -16 -27 -21 -60 -29 -50 -12 4 5 1 11 -6 13 -7
3 -8 9 -3 19 15 22 14 37 -1 43 -15 6 -15 31 0 54 7 12 4 12 -15 1 -34 -18
-46 -32 -41 -48 3 -8 0 -11 -7 -7 -6 4 -11 2 -11 -3 0 -19 -20 -12 -21 7 0 10
-3 12 -6 4 -2 -6 -9 -10 -14 -6 -5 3 -5 12 1 23 5 10 6 22 2 26 -4 3 -7 11 -7
15 0 5 -9 16 -20 24 -16 12 -17 16 -5 20 8 3 27 10 43 15 15 6 27 17 27 26 0
8 5 15 12 15 6 0 20 8 31 18 12 10 17 11 12 3 -5 -10 -4 -12 3 -7 7 4 12 13
12 21 0 12 13 19 42 24 4 0 12 -8 18 -18z m-245 -61 c-3 -5 -11 -10 -16 -10
-6 0 -7 5 -4 10 3 6 11 10 16 10 6 0 7 -4 4 -10z m-127 -77 c-2 -9 -9 -18 -16
-19 -7 -1 -8 0 -3 2 6 3 7 12 4 20 -3 8 0 14 7 14 6 0 10 -8 8 -17z m461 -87
c9 -10 8 -15 -3 -19 -9 -4 -18 -1 -22 5 -5 7 -2 8 6 3 10 -6 12 -4 7 8 -8 21
-3 22 12 3z m-279 0 c0 -2 -7 -7 -16 -10 -8 -3 -12 -2 -9 4 6 10 25 14 25 6z
m60 -21 c0 -8 -10 -19 -22 -25 -21 -10 -21 -10 -5 3 9 8 17 19 17 26 0 6 2 11
5 11 3 0 5 -7 5 -15z m-100 2 c0 -2 -13 -16 -29 -31 -16 -16 -29 -22 -28 -15
4 22 18 40 27 34 5 -3 11 -1 15 5 6 9 15 14 15 7z m3 -70 c-3 -5 -13 -2 -22 7
-14 15 -14 18 -1 26 11 7 17 4 21 -8 4 -9 4 -21 2 -25z m94 15 c0 -10 -6 -19
-13 -19 -9 0 -11 13 -5 35 1 1 5 2 10 2 6 0 9 -8 8 -18z m-53 -20 c3 -5 -1 -9
-9 -9 -8 0 -12 4 -9 9 3 4 7 8 9 8 2 0 6 -4 9 -8z m-79 -31 c-3 -5 -1 -12 5
-16 5 -3 10 -11 10 -16 0 -6 -4 -7 -10 -4 -5 3 -10 1 -10 -4 0 -6 -8 -3 -18 7
-17 16 -17 17 2 29 26 15 29 16 21 4z m-62 -96 c-3 -9 -8 -14 -10 -11 -3 3 -2
9 2 15 9 16 15 13 8 -4z M4521 7454 c0 -11 3 -14 6 -6 3 7 2 16 -1 19 -3 4 -6
-2 -5 -13z M2572 7380 c0 -14 2 -19 5 -12 2 6 2 18 0 25 -3 6 -5 1 -5 -13z
M2957 7388 c-2 -7 -1 -22 4 -33 6 -16 8 -14 8 13 1 33 -4 41 -12 20z M1260
7345 c0 -8 4 -15 10 -15 5 0 7 7 4 15 -4 8 -8 15 -10 15 -2 0 -4 -7 -4 -15z
M2066 7335 c-11 -8 -15 -15 -9 -15 6 0 16 7 23 15 16 19 11 19 -14 0z M2466
7308 c-11 -17 -14 -28 -8 -24 6 3 12 0 15 -6 2 -7 7 2 11 20 10 45 4 48 -18
10z M1752 7256 c-7 -35 -12 -95 -12 -133 0 -76 -6 -89 -62 -122 -51 -30 -49
-38 2 -10 64 36 71 48 75 140 3 46 7 108 10 137 9 72 1 65 -13 -12z M4552
7300 c0 -14 2 -19 5 -12 2 6 2 18 0 25 -3 6 -5 1 -5 -13z M4592 7300 c0 -14 2
-19 5 -12 2 6 2 18 0 25 -3 6 -5 1 -5 -13z M2543 7275 c0 -22 2 -30 4 -17 2
12 2 30 0 40 -3 9 -5 -1 -4 -23z M2952 7290 c0 -14 2 -19 5 -12 2 6 2 18 0 25
-3 6 -5 1 -5 -13z M4391 7294 c0 -11 3 -14 6 -6 3 7 2 16 -1 19 -3 4 -6 -2 -5
-13z M4396 7255 c4 -8 8 -15 10 -15 2 0 4 7 4 15 0 8 -4 15 -10 15 -5 0 -7 -7
-4 -15z M4561 7234 c0 -21 4 -57 9 -79 6 -30 7 -21 3 35 -6 81 -13 107 -12 44z
M2842 7210 c-31 -54 -28 -65 4 -12 14 24 24 45 22 47 -2 2 -13 -14 -26 -35z
M2940 7215 c0 -8 4 -15 10 -15 5 0 7 7 4 15 -4 8 -8 15 -10 15 -2 0 -4 -7 -4
-15z M2384 7202 c-14 -9 -28 -82 -16 -82 9 0 36 79 30 85 -2 2 -8 1 -14 -3z
M2531 7194 c0 -11 3 -14 6 -6 3 7 2 16 -1 19 -3 4 -6 -2 -5 -13z M4006 7154
c-4 -9 -4 -19 -1 -22 2 -3 7 3 11 12 4 9 4 19 1 22 -2 3 -7 -3 -11 -12z M2941
7144 c0 -11 3 -14 6 -6 3 7 2 16 -1 19 -3 4 -6 -2 -5 -13z M2511 7099 c-7 -19
-8 -36 -2 -42 5 -5 11 7 15 28 9 48 2 55 -13 14z M1063 7085 c0 -22 2 -30 4
-17 2 12 2 30 0 40 -3 9 -5 -1 -4 -23z M2927 7093 c-4 -15 -9 -38 -13 -50 -4
-14 -2 -23 4 -23 6 0 14 20 18 45 7 51 0 72 -9 28z M4581 7094 c0 -11 3 -14 6
-6 3 7 2 16 -1 19 -3 4 -6 -2 -5 -13z M2900 6994 c0 -21 17 -25 22 -6 3 11 0
19 -8 19 -8 0 -14 -6 -14 -13z M2879 6963 c-11 -3 -15 -11 -12 -24 3 -10 1
-25 -5 -32 -6 -7 -15 -25 -21 -40 -10 -25 -9 -27 14 -25 20 2 24 7 19 23 -4
16 -3 17 5 5 5 -8 13 -11 17 -7 4 4 -1 16 -11 27 -10 11 -13 20 -7 20 7 0 12
-4 12 -10 0 -5 5 -10 10 -10 12 0 14 67 3 73 -5 2 -15 2 -24 0z m19 -38 c-3
-3 -9 2 -12 12 -6 14 -5 15 5 6 7 -7 10 -15 7 -18z M2697 6915 c-9 -19 -15
-35 -12 -35 7 0 37 61 33 66 -3 2 -12 -12 -21 -31z M1151 6924 c0 -11 3 -14 6
-6 3 7 2 16 -1 19 -3 4 -6 -2 -5 -13z M4511 6895 c1 -19 18 -51 18 -35 0 8 -4
22 -9 30 -5 8 -9 11 -9 5z M1414 6869 c-16 -10 -34 -17 -41 -14 -14 5 -27 -11
-15 -18 4 -3 29 5 55 18 27 12 44 25 40 28 -5 3 -22 -3 -39 -14z M4630 6881
c0 -6 4 -11 10 -11 5 0 7 -7 4 -15 -4 -8 -4 -15 -1 -15 13 0 14 30 1 40 -10 9
-14 9 -14 1z M4717 6873 c-4 -3 -7 -11 -7 -17 0 -6 5 -5 12 2 6 6 9 14 7 17
-3 3 -9 2 -12 -2z M1072 6840 c0 -19 2 -27 5 -17 2 9 2 25 0 35 -3 9 -5 1 -5
-18z M1326 6861 c-3 -4 1 -17 10 -27 14 -18 15 -18 5 2 -6 12 -7 24 -4 28 3 3
4 6 0 6 -3 0 -8 -4 -11 -9z M4657 6835 c-4 -9 -3 -14 2 -11 4 3 16 -13 26 -35
24 -53 44 -37 25 21 -9 28 -16 37 -22 28 -6 -11 -10 -10 -17 0 -7 11 -9 10
-14 -3z M2401 6824 c0 -11 3 -14 6 -6 3 7 2 16 -1 19 -3 4 -6 -2 -5 -13z
M2840 6791 c0 -6 4 -13 10 -16 6 -3 7 1 4 9 -7 18 -14 21 -14 7z M1209 6743
c-13 -17 -13 -17 6 -3 11 8 22 16 24 17 2 2 0 3 -6 3 -6 0 -17 -8 -24 -17z
M1770 6751 c0 -6 4 -13 10 -16 6 -3 7 1 4 9 -7 18 -14 21 -14 7z M4631 6689
c-7 -24 -16 -55 -20 -69 -4 -14 -12 -24 -18 -23 -6 1 -17 -21 -23 -50 -7 -29
-23 -90 -36 -137 -13 -46 -24 -93 -23 -105 0 -11 2 -15 4 -10 2 6 11 34 20 64
9 29 22 60 30 67 14 14 45 111 70 218 18 78 15 111 -4 45z M4727 6723 c-4 -7
-3 -31 3 -55 5 -24 10 -72 10 -107 0 -81 8 -75 14 10 5 67 -14 173 -27 152z
M1149 6699 l-24 -20 28 17 c15 9 27 18 27 20 0 8 -8 4 -31 -17z M4425 6588
c-39 -175 -40 -194 -4 -103 21 53 33 105 36 153 3 39 3 72 1 72 -3 0 -17 -55
-33 -122z M1318 6669 c-19 -14 -28 -29 -27 -47 1 -21 2 -23 6 -7 8 34 25 43
19 10 -6 -27 -4 -27 13 9 12 24 21 33 24 25 3 -8 6 -4 6 9 1 27 -6 27 -41 1z
M4573 6645 c0 -22 2 -30 4 -17 2 12 2 30 0 40 -3 9 -5 -1 -4 -23z M1310 6550
c-7 -17 -15 -28 -18 -25 -3 3 -23 -25 -44 -61 -21 -37 -37 -68 -35 -70 2 -3
19 10 38 28 32 30 59 80 74 136 9 32 0 27 -15 -8z M2062 6550 c0 -14 2 -19 5
-12 2 6 2 18 0 25 -3 6 -5 1 -5 -13z M4532 6550 c0 -14 2 -19 5 -12 2 6 2 18
0 25 -3 6 -5 1 -5 -13z M4080 6519 c0 -5 5 -7 10 -4 6 3 10 8 10 11 0 2 -4 4
-10 4 -5 0 -10 -5 -10 -11z M4490 6510 c0 -7 -7 -21 -15 -30 -8 -9 -17 -27
-19 -41 -2 -13 -5 -24 -6 -24 -1 0 -4 -9 -7 -20 -8 -29 -14 -122 -7 -107 3 6
9 10 14 7 8 -5 36 63 32 77 -1 4 2 38 8 75 5 37 7 69 5 72 -3 2 -5 -2 -5 -9z
M1166 6448 c-9 -29 0 -68 15 -68 10 0 10 21 -1 65 l-7 30 -7 -27z M4102 6410
c0 -14 2 -19 5 -12 2 6 2 18 0 25 -3 6 -5 1 -5 -13z M4352 6380 c0 -14 2 -19
5 -12 2 6 2 18 0 25 -3 6 -5 1 -5 -13z M4171 6339 c-14 -46 -5 -181 10 -158 6
9 9 -4 9 -35 0 -54 8 -55 20 -4 l8 33 1 -30 c1 -28 3 -26 36 30 19 33 34 65
34 70 0 6 -6 -2 -15 -17 -8 -15 -23 -32 -34 -38 -18 -10 -20 -8 -19 22 1 31 1
31 9 8 l7 -25 8 27 c8 31 -12 128 -26 128 -5 0 -9 -6 -9 -14 0 -8 -9 -24 -20
-37 l-20 -24 8 25 c17 48 22 80 14 80 -5 0 -14 -18 -21 -41z M3942 6318 c-18
-30 -41 -90 -30 -78 18 20 66 110 59 110 -5 0 -18 -15 -29 -32z M4100 6336 c0
-1 5 -18 11 -35 7 -21 14 -29 19 -21 8 13 -10 60 -22 60 -5 0 -8 -2 -8 -4z
M4309 6333 c0 -5 -2 -18 -3 -30 -2 -13 1 -23 6 -23 4 0 8 14 8 30 0 26 -8 44
-11 23z M4480 6318 c0 -7 -6 -24 -13 -38 -12 -23 -12 -26 5 -27 15 -1 18 6 18
38 0 21 -2 39 -5 39 -3 0 -5 -6 -5 -12z M4342 6265 c0 -16 2 -22 5 -12 2 9 2
23 0 30 -3 6 -5 -1 -5 -18z M1430 6269 c0 -5 5 -7 10 -4 6 3 10 8 10 11 0 2
-4 4 -10 4 -5 0 -10 -5 -10 -11z M2051 6205 c-12 -20 -16 -38 -10 -46 4 -8 6
-24 3 -36 -5 -20 -2 -22 25 -20 28 2 31 6 37 46 4 28 9 38 15 30 6 -10 9 -9
15 5 4 11 2 21 -6 26 -7 4 -10 12 -7 17 3 5 -7 10 -23 10 -23 0 -34 -8 -49
-32z M4450 6209 c0 -5 5 -7 10 -4 6 3 10 8 10 11 0 2 -4 4 -10 4 -5 0 -10 -5
-10 -11z M1287 6146 c-6 -16 2 -28 14 -20 12 7 11 34 0 34 -5 0 -11 -6 -14
-14z M2141 6114 c0 -11 3 -14 6 -6 3 7 2 16 -1 19 -3 4 -6 -2 -5 -13z M4145
6069 c9 -17 19 -29 21 -26 7 7 -18 57 -28 57 -5 0 -1 -14 7 -31z M4541 6043
c28 -66 43 -79 34 -28 -9 50 -22 75 -40 75 -12 0 -10 -9 6 -47z M4211 6054 c0
-11 3 -14 6 -6 3 7 2 16 -1 19 -3 4 -6 -2 -5 -13z M4186 6015 c-3 -8 -1 -15 4
-15 6 0 10 7 10 15 0 8 -2 15 -4 15 -2 0 -6 -7 -10 -15z M1887 6013 c-4 -3 -7
-15 -7 -25 0 -13 8 -18 29 -18 27 0 28 1 18 25 -12 24 -27 31 -40 18z M4138
5985 c5 -29 8 -31 15 -11 3 8 0 19 -7 25 -10 9 -12 6 -8 -14z M1860 5954 c-31
-10 -100 -49 -100 -56 0 -5 11 -6 24 -2 16 4 25 1 29 -10 4 -9 14 -16 22 -16
13 0 15 6 10 29 -6 27 -3 30 37 44 32 12 37 15 18 15 -14 0 -32 -2 -40 -4z
M4182 5948 c3 -7 13 -15 23 -17 17 -3 17 -2 3 13 -20 19 -31 21 -26 4z M1645
5835 l-30 -25 32 16 c18 8 35 19 38 25 11 17 -10 9 -40 -16z M1056 5836 c8
-21 45 -18 52 4 5 13 3 13 -11 1 -14 -11 -20 -11 -32 -1 -13 11 -14 10 -9 -4z
M1203 5814 c-3 -8 -1 -20 6 -27 8 -8 11 -8 11 1 0 24 53 11 157 -38 115 -54
138 -61 108 -30 -26 25 -218 110 -251 110 -13 0 -27 -7 -31 -16z M936 4742
c-17 -4 -18 -11 -12 -70 3 -37 6 -77 6 -88 0 -24 44 -39 59 -20 10 13 -11 163
-25 175 -5 4 -17 6 -28 3z M2128 4698 c-9 -7 -20 -34 -23 -60 l-7 -46 42 10
c26 7 39 15 36 23 -2 7 1 18 7 24 8 8 5 18 -14 36 -21 21 -27 23 -41 13z
M2056 4656 c-30 -27 -33 -35 -20 -40 34 -13 54 -7 53 17 -1 12 2 30 6 40 11
25 1 21 -39 -17z M2092 4540 c0 -14 2 -19 5 -12 2 6 2 18 0 25 -3 6 -5 1 -5
-13z M930 4476 c0 -76 6 -88 43 -78 14 4 17 16 17 73 0 38 -3 69 -7 70 -5 0
-18 2 -30 5 -22 4 -23 1 -23 -70z M1010 4295 c0 -14 2 -25 4 -25 2 0 6 11 8
25 3 14 1 25 -3 25 -5 0 -9 -11 -9 -25z M1047 4169 c7 -7 15 -10 18 -7 3 3 -2
9 -12 12 -14 6 -15 5 -6 -5z M2247 4146 c-4 -9 -3 -18 2 -20 13 -8 52 6 48 18
-6 17 -44 19 -50 2z M1020 4090 c0 -5 5 -10 10 -10 6 0 10 5 10 10 0 6 -4 10
-10 10 -5 0 -10 -4 -10 -10z M1456 4003 c-6 -14 -5 -15 5 -6 7 7 10 15 7 18
-3 3 -9 -2 -12 -12z M1253 3933 c9 -2 23 -2 30 0 6 3 -1 5 -18 5 -16 0 -22 -2
-12 -5z M1165 3910 c-13 -6 -15 -9 -5 -9 8 0 22 4 30 9 18 12 2 12 -25 0z
M1067 3899 c7 -7 15 -10 18 -7 3 3 -2 9 -12 12 -14 6 -15 5 -6 -5z"/>
</g>
</svg>
